{"title":"Nanu Nanna Kansu (2010)","uid":6492650,"size":744906109,"categoryP":"video","categoryS":"movies","magnet":"?xt=urn:btih:2d37460cf0416ff6e007a628f89eae4603c44427&amp;dn=Nanu+Nanna+Kansu+%282010%29&amp;tr=udp%3A%2F%2Ftracker.openbittorrent.com%3A80&amp;tr=udp%3A%2F%2Fopen.demonii.com%3A1337&amp;tr=udp%3A%2F%2Ftracker.coppersurfer.tk%3A6969&amp;tr=udp%3A%2F%2Fexodus.desync.com%3A6969","seeders":1,"leechers":0,"uploader":null,"files":-1,"time":1308941780,"description":"Story:\nSet on the backdrop of a hill station of Coorg, the wealthy businessman Raj Uthappa (prakashraj) simply dotes on his daughter Kanasu (amoolya). So much that he gets possessive about her and extremely protective. The time comes when Kanasu grows up and goes to New Delhi for her studies. The story takes a turn when Amoolya reveals about her love affair with Joginder (achyuth), a sardar. Raj is totally shocked and he doesn't take it that easily though his wife (sithara) is positive about it. What happens from there forms the rest of the story\n\n\n\nRating : 3.25/5\nBanner : Duet Movies, Media House\nCast : Prakash Raj, Amoolya, Ramesh Aravind, Sithara, Achyuth Kumar, Sihikahi Chandru, Baby Krithika, Veena Sunder, Rajesh and Others\nMusic : AHamsalekha\nCinematography : Ananth Urs\nProducer: Prakash Raj\nDirector: Prakash Raj\nReleased Date: May 14, 2010 \n\n\n\nGeneral \n\n      Format : MPEG-4\n      Codec ID : M4V \n      File size : 710 MiB\n      Duration : 2h 15mn\n      Overall bit rate : 731 Kbps\n      Encoded date : UTC 2011-06-24 \n      Tagged date : UTC 2011-06-24 \n      Writing application :Lavf52.78.5\n      \n   Video \n     \n      Format : AVC\n      Format/Info : Advanced VideoCodec\n      Format profile : &lt;a class=&quot;__cf_email__&quot; href=&quot;/cdn-cgi/l/email-protection&quot; data-cfemail=&quot;63210210060f0a0d06232f504d53&quot;&gt;[email&amp;#160;protected]&lt;/a&gt;&lt;script cf-hash='f9e31' type=&quot;text/javascript&quot;&gt;\n/* &lt;![CDATA[ */!function(){try{var t=&quot;currentScript&quot;in document?document.currentScript:function(){for(var t=document.getElementsByTagName(&quot;script&quot;),e=t.length;e--;)if(t[e].getAttribute(&quot;cf-hash&quot;))return t[e]}();if(t&amp;&amp;t.previousSibling){var e,r,n,i,c=t.previousSibling,a=c.getAttribute(&quot;data-cfemail&quot;);if(a){for(e=&quot;&quot;,r=parseInt(a.substr(0,2),16),n=2;a.length-n;n+=2)i=parseInt(a.substr(n,2),16)^r,e+=String.fromCharCode(i);e=document.createTextNode(e),c.parentNode.replaceChild(e,c)}}}catch(u){}}();/* ]]&gt; */&lt;/script&gt;\n      Format settings, CABAC : No\n      Format settings, ReFrames : 1 frame\n      Codec ID : avc1\n      Codec ID/Info : Advanced Video Coding\n      Duration : 2h 15mn\n      Bit rate mode : Variable\n      Bit rate : 600 Kbps\n      Width : 480 pixels\n      Height : 320 pixels\n      Display aspect ratio : 4:3\n      Frame rate mode : Constant\n      Frame rate : 25.000 fps\n      Resolution : 24 bits\n      Colorimetry : 4:2:0\n      Scan type : Progressive\n      Bits/(Pixel*Frame) : 0.156\n      Stream size : 582 MiB (82%)\n      Writing library : x264 core\n      Encoded date : UTC 2011-06-24 \n      Tagged date : UTC 2011-06-24 \n\n   Audio \n      \n      Format : AAC\n      Format/Info : Advanced Audio Codec\n      Format version : Version 4\n      Format profile : LC\n      Format settings, SBR : No\n      Codec ID : 40\n      Duration : 2h 15mn\n      Bit rate mode : Variable\n      Bit rate : 128 Kbps\n      Channel(s) : 2 channels\n      Channel positions : L R\n      Sampling rate : 44.1 KHz\n      Resolution : 16 bits\n      Stream size : 124 MiB (18%)\n      Encoded date : UTC 2011-06-24 \n      Tagged date : UTC 2011-06-24\n\n\nScreens\n\n &lt;a href=&quot;\nhttp://savesnap.com/images/nanuknsu.jpg&quot; rel=&quot;nofollow&quot; target=&quot;_NEW&quot;&gt;\nhttp://savesnap.com/images/nanuknsu.jpg&lt;/a&gt;","torrent":{"xt":"urn:btih:2d37460cf0416ff6e007a628f89eae4603c44427","amp;dn":"Nanu+Nanna+Kansu+%282010%29","amp;tr":["udp%3A%2F%2Ftracker.openbittorrent.com%3A80","udp%3A%2F%2Fopen.demonii.com%3A1337","udp%3A%2F%2Ftracker.coppersurfer.tk%3A6969","udp%3A%2F%2Fexodus.desync.com%3A6969"],"infoHash":"2d37460cf0416ff6e007a628f89eae4603c44427","infoHashBuffer":{"type":"Buffer","data":[45,55,70,12,240,65,111,246,224,7,166,40,248,158,174,70,3,196,68,39]},"announce":[],"urlList":[]}}